/* XPM */
static char *_d97d61fa3df439580200d9e40edf864TTL57UK7sfiWtBkC[] = {
/* columns rows colors chars-per-pixel */
"64 64 256 2 ",
"   c #391A17",
".  c #3D221F",
"X  c #341529",
"o  c #3C2628",
"O  c #3B2835",
"+  c #3E3131",
"@  c #4B1A12",
"#  c #4B261A",
"$  c #54291B",
"%  c #59351E",
"&  c #6C361D",
"*  c #4B1926",
"=  c #4A122F",
"-  c #5A172B",
";  c #5A163A",
":  c #6F1330",
">  c #681533",
",  c #771535",
"<  c #452927",
"1  c #50292F",
"2  c #4A332D",
"3  c #573527",
"4  c #483437",
"5  c #573B35",
"6  c #673928",
"7  c #783C26",
"8  c #6F3433",
"9  c #77421C",
"0  c #5A433A",
"q  c #69422B",
"w  c #784429",
"e  c #684637",
"r  c #784836",
"t  c #73513B",
"y  c #571543",
"u  c #691651",
"i  c #483642",
"p  c #753447",
"a  c #7D1569",
"s  c #5A4747",
"d  c #594751",
"f  c #674B47",
"g  c #705550",
"h  c #7A6257",
"j  c #6E5E64",
"k  c #776365",
"l  c #813C1D",
"z  c #800B2F",
"x  c #890D37",
"c  c #980C3A",
"v  c #871439",
"b  c #95133D",
"n  c #A40B3C",
"m  c #A90A3B",
"M  c #B4093D",
"N  c #A3143F",
"B  c #8F3831",
"V  c #A33F3D",
"C  c #C4063F",
"Z  c #864629",
"A  c #95492D",
"S  c #93532D",
"D  c #884A37",
"F  c #984B35",
"G  c #8A5437",
"H  c #995637",
"J  c #A54B34",
"K  c #A75A37",
"L  c #B65A39",
"P  c #9A613A",
"I  c #A76237",
"U  c #B9673A",
"Y  c #B9713D",
"T  c #C05D3D",
"R  c #C7693C",
"E  c #CA723B",
"W  c #D6743D",
"Q  c #990D44",
"!  c #8B1A44",
"~  c #9A1747",
"^  c #970A55",
"/  c #8C1155",
"(  c #981655",
")  c #A50A44",
"_  c #AB0B44",
"`  c #AC0B4B",
"'  c #B60A48",
"]  c #A91849",
"[  c #B8154A",
"{  c #A90856",
"}  c #AB0B5A",
"|  c #B60956",
" . c #B40D5C",
".. c #BB0B5C",
"X. c #A61757",
"o. c #AB1455",
"O. c #AC135B",
"+. c #BC1455",
"@. c #B4145B",
"#. c #BC145B",
"$. c #B61858",
"%. c #9A274C",
"&. c #95344E",
"*. c #B12850",
"=. c #941464",
"-. c #B80B65",
";. c #AB1161",
":. c #B51462",
">. c #BA1163",
",. c #B91865",
"<. c #BA0A75",
"1. c #B71279",
"2. c #9C246B",
"3. c #AE2F67",
"4. c #C80B48",
"5. c #D30E4C",
"6. c #D90A48",
"7. c #C5164B",
"8. c #CB124C",
"9. c #D5134E",
"0. c #C90B5A",
"q. c #D80E54",
"w. c #C81A56",
"e. c #C3145C",
"r. c #CB135E",
"t. c #D81357",
"y. c #E5084B",
"u. c #E60D55",
"i. c #EC0D55",
"p. c #F40C58",
"a. c #FC0D5C",
"s. c #E61558",
"d. c #ED125B",
"f. c #F7135D",
"g. c #C72856",
"h. c #C70C66",
"j. c #D60D68",
"k. c #C51263",
"l. c #CB1363",
"z. c #C81766",
"x. c #D41363",
"c. c #DB1364",
"v. c #D61668",
"b. c #DC126C",
"n. c #C50B78",
"m. c #D80A79",
"M. c #DA1273",
"N. c #F60C65",
"B. c #FE0E62",
"V. c #E41364",
"C. c #EC1464",
"Z. c #E71668",
"A. c #F71767",
"S. c #FD1164",
"D. c #FD136B",
"F. c #E31370",
"G. c #FE1373",
"H. c #FE1878",
"J. c #D72A65",
"K. c #FB2569",
"L. c #EB2B78",
"P. c #F12B70",
"I. c #874548",
"U. c #8E514A",
"Y. c #985847",
"T. c #A65A47",
"R. c #B85B46",
"E. c #A85B56",
"W. c #B15253",
"Q. c #916C54",
"!. c #A96649",
"~. c #B86648",
"^. c #BA7344",
"/. c #AD6F58",
"(. c #BA6655",
"). c #865A65",
"_. c #AF576B",
"`. c #8B716A",
"'. c #957A6A",
"]. c #987B74",
"[. c #AF7767",
"{. c #C6534F",
"}. c #C86947",
"|. c #D56C49",
" X c #C67647",
".X c #DA7645",
"XX c #C86955",
"oX c #D56D54",
"OX c #C97457",
"+X c #D97556",
"@X c #E57A49",
"#X c #E46F53",
"$X c #E67857",
"%X c #EC7C5A",
"&X c #F07E59",
"*X c #E05170",
"=X c #CA706E",
"-X c #9E835E",
";X c #A3835D",
":X c #968166",
">X c #9C8464",
",X c #9C856B",
"<X c #9E896B",
"1X c #9E8476",
"2X c #A58664",
"3X c #A48A65",
"4X c #AA8B64",
"5X c #A48C6B",
"6X c #AA8D6B",
"7X c #B7886B",
"8X c #AC926D",
"9X c #A58B77",
"0X c #AD9373",
"qX c #AC937F",
"wX c #B39878",
"eX c #D3834F",
"rX c #F0824C",
"tX c #EA8356",
"yX c #F58759",
"uX c #CD866E",
"iX c #FC9465",
"pX c #F6906C",
"aX c #BA0D85",
"sX c #BB1186",
"dX c #C80C87",
"fX c #D90E86",
"gX c #CF0F92",
"hX c #E40D8B",
"jX c #FF1A84",
"kX c #FF1B88",
"lX c #FF2485",
"zX c #A17A85",
"xX c #D56E8A",
"cX c #EF608A",
"vX c #EC6E91",
"bX c #998181",
"nX c #AC938A",
"mX c #B89C86",
"MX c #B89B93",
"NX c #BBA189",
"BX c #BEA398",
"VX c #D1928E",
"CX c #E7948B",
"ZX c #C4A68D",
"AX c #C5A999",
"SX c #D0B29B",
"DX c #F796AA",
"FX c #CEB2A7",
"GX c #D8BBAA",
"HX c #F2ABB5",
"JX c #DDC2AE",
"KX c #E5C8B9",
"LX c #FFB2C4",
"PX c #F4D3CA",
"IX c #FCE3D8",
"UX c #FFE0E0",
/* pixels */
"^ ^ ^ / / Q c n m M C C C 6.6.C _ n Q , , > : , x c Q =.a u y y y u ! ,.e.| e.x.e.X.X.o.e.l.l.e.{ ) b c n m n b x x , - * - , c ",
"^ ^ ^ ^ / Q c m M ' ' 4.C 6.C M Q c x > > > , : Q Q { =.a u y y ; , ! ,.+.` k.v.#.$.$.$.e.e.k. .` Q c c n m n v v v > - - > b m ",
"^ ^ ^ ^ ^ ^ c m M ' | | 4.C C M c x : > - > : Q Q ~ X.=.a u y y > y p 3.$.^ @.z.e.X.X.$.k.z.#.` m m n c n n n v z : - * - , N ' ",
"{ { ^ ^ ^ ` ` _ _ { -.-.| ' M m c x : : > : , c Q ^ ( =.u y y X = O = g f p &.z.,.$.X.X.$.$.$.` M M m m n n n v , : $ - - v M ' ",
"} { { } { { ` | -.<.<.n.h.4.' m c c , : : : v Q ~ o.O./ y X d i O O i ].g j j 3.#.e.$.$.#...0.| ' M C M M M _ b , > - * > b m M ",
"{ } } } } } 0.>.n.n.dXm.j.0.' M n x z , , x b Q ] o.( y X O O i i O O i `.g g )._.g.+.w.r.c.q.q.6.6.C C ' 7.' b : - < - : b m N ",
"-.{ { { {  .h.n.n.dXdXm.m.0.| M c x , x c Q ) [ +.~ = X O O i j i j g k `.k f i f 3.w.r.t.C.N.p.y.6.6.4.4.4.[ b , - - 8 v m M m ",
"{ { { ^ { ;.-.n.n.n.aXn.h.0.| _ c x x x c Q ' [ ~ = X 4 i j d i 4 d i f g g 5 2 0 ).3.g.t.f.N.a.p.y.6.6.6.4.4.! , - - v b M 4.' ",
"-.^ } ^ { @.-.-.<.<.<.<.-.| ` ) c z x c b ) ` o.= X O zXd j 4 + + 4 4 0 e e 5 f j s f &.t.p.B.N.p.y.6.6.5.8.' ! 8 > : b N 7.C 4.",
"} ;.;.{ X. .|  .-.<.<.-.{ { ` c c x b b Q ` +., X X d d s 4 o 4 2 0 5 e g f ).1Xg 0 1 1 g.d.a.a.p.y.C 6.5.' ) ! , , v N M 7.4.4.",
"-.;.;.{ { } | | { | { { { ` ) c b c ~ ) _ ` ] * X + + O o + < 4 2 0 e g U.'.9X9Xh 5 . < v d.a.a.p.6.6.8.4.' ~ ! v b N [ M ' 4.C ",
"-.-.;.} } } { ` { { { { { ) n n c c ) _ ` [ u . o O o o o o 2 5 5 t U.Y./.VXuX9Xh 5 < < @ s.a.a.i.y.9.4.4.] ~ ! b N [ 7.8.7.[ 4.",
"} } { } } } @.| { ` ` { ` ) _ m n ) ) ` [ o.; X o o X o 2 2 3 e r U.E./.=XCXuX5Xg 0 < < * [ a.a.p.6.9.4.4.) ~ ] ] [ 8.9.8.7.4.4.",
"..| -.} { @.@.| { { { { ` _ _ m m _ _ ` | ~ * < 1 2 o < 2 e e r U.H (.oXuXpXuX/.Q.e 1 o * , a.a.y.9.8.8.[ ] X.] [ 8.6.6.5.4.7.8.",
"..} { { } ..#.....{ { ` { ` ' _ _ _ _ [ +.p 2 1 5 5 3 2 5 e I.Y.!.~.OXuXpXCXpX[.Q.e 5 < # - p.p.y.5.4.7._ o.$.7.4.9.6.9.4.8.4.5.",
"......} | ..>.>.-. .{ | ` ` ' ' ` ` ' | $.u p p 8 8 e 8 q U.!.XXoX+XyXpXCXpXtX;XQ.t 3 5 < * p.p.u.9.8.M b o.#.w.y.i.6.5.5.8.5.5.",
"....-. . .>.>.-.>.-.;.| | | | ` | | #.>.X.; f T.T.W.Y.B I.!.oX+X%XtXpXpXpXiX+X7X[.Q.q < 5 # s.p.9.9.8.[ Q o.r.q.d.p.6.9.5.5.q.5.",
".... . . . ...>.-.-.-.| ....0.| ..-.<.,.2.u I.(.R.XXXXW.R.oX#X$X$XtXyXiXiXiXeXOX[.Q.e 3 . . s.i.y.9.4.] ~ @.x.s.d.p.u.9.5.q.q.q.",
"| ;. .X.} :. .>.>.1.<.-.h.n.n.n.<.<.<.sX2.; U.(.XXXX|.oXoX+X#X$X%X&XyXiXiXyXeX~.!.Y.q 5 5 < g.y.u.t.[ ~ ~ ..x.d.f.i.u.6.q.6.6.q.",
"} } { { O...;.:.:.1.1.<.n.n.n.aX<.aXsXsX2.p E.~.}.oXoXoX+X#X$X$X$XyXtXpXyXtX+X~.!.Y.g #   * ] u.q.8.` ! X.e.V.C.d.i.s.t.q.9.u.u.",
"..O.o.{ O.:.:.>.1.1.1.1.sXdXdXdXsXsXsXsX2.p W.~.XXoXoX+X#X$X%X%XyXyX%XtXtXtX XL I D q 3     z q.9.+.~ ! $.x.A.N.d.s.u.u.s.q.u.9.",
"0.#.@.:.>.l.l.n.n.n.sX1.aXsXgXgXsXsXaX1.2.g E.R.XX+XoX+X$X%X%XyXyXtXtXtX@X@XR L H Z q 3 # < : 5.8.] ! ! #.C.G.B.f.u.u.q.9.9.q.9.",
"0.e.l.k.z.b.M.M.fXfXfXdXgXgXfXgXdXdXn.,.2.I.T.~.XX+X+X+X%X%X&XyXpXyXtX@X@X@XR K S G 6 $ 2 2 , 7.[ %.! ~ r.G.G.D.a.p.u.9.9.8.t.9.",
"0.l.l.l.j.b.M.m.fXhXfXgXhXhXhXfXdXdXn.-.2.I.E.XXXX+X%X%X%X%XyXiXiXyXrXrX@X.XT K K H q # 3 5 B 7.[ ! ! o.C.G.G.D.f.a.p.q.8.8.8.8.",
"r.r.l.l.x.b.b.j.m.m.hXhXhXhXhXhXm.n.z.:.2.U.W.XX|.+X%X&X&X%X&XiXiXiXrXrX@X@XU L J Z q 3 q g %.7.%.v ~ w.N.jXG.D.a.a.a.i.9.9.8.8.",
"0.l.h.l.l.j.r.j.j.j.j.j.m.m.hXm.h.n.h.@.( I.(.XXoX+X%X&X&X&XyXiXiXyXrXrXrXW R L S S q % t e 8 7.] v ~ s.G.G.jXD.S.S.a.a.u.t.9.t.",
"h.l.h.l.l.j.q.0.q.0.0.h.h.j.h.j.h.k...o.( U.E.XXoX$X%X&X&X&XyXiXiXrXrXrX@XW R L H S q q q 5 U.g.%., [ D.G.jXH.G.S.B.a.a.d.d.d.s.",
"r.l.k.k.h.q.0.q.0.4.| 0.0.0.h.h.k.e.+.o.%.&.(.=XoX$X%X&X&X&XrXyXiXrXrXrX@XW E R I l q q q # =XW.b v 5.D.jXjXjXG.S.a.a.a.f.i.i.s.",
"l.l.k.k.l.c.q.j.q.0.8.0.0.0.0.l.0...+.o.] &.(.XXoX$XyX&X%X&X&XyXiXrX@X.XW W R R U F w 3 6 D B {.&.%.f.K.jXjXjXD.S.a.a.f.p.i.u.u.",
"k.l.k.>.x.c.V.q.j.q.0.0.h.k.j.0.e.#.+.$.*.&._.(.=X+XtXpXyX%XtXyXyXrX@XE W W R R R K w q 3 7 B {.8 M f.H.jXjXjXG.S.a.f.p.i.u.u.u.",
"k.l.k.k.x.c.c.j.j.j.x.0.0.h.l.x.e.+.| +.o.&._.E.XX+XtXyX%X%XoXOXeX^.I K L U T R R I w q q D T {.& g.A.H.jXkXjXH.D.a.p.p.i.u.i.i.",
"0.l.z.k.x.V.V.b.b.j.j.j.j.j.j.r.e.+.+.+.$.%.E.I.Y.T.(.tX&X+X{.A Z w l I I L R R  XU G q t Y.{.T , s.K.H.jXkXlXH.D.S.p.p.p.p.i.i.",
"z.z.z.z.l.Z.b.b.b.b.j.j.j.j.j.j.e.e.+.+.X.%.U.8 6 7 F OX$X|.R.J Z H !.~.I I R R }.R H q r D L T b s.A.H.jXkXkXH.S.S.p.p.p.p.p.p.",
"k.,.,.,.x.c.F.b.b.b.b.m.M.c.0.j.r.e.+.*.] &.I.8 D D H ~.|.oX}.L !.XXOX X~.K L E R R H r e D J {.W.f.D.H.jXkXlXH.D.S.a.f.p.a.p.d.",
">.,.z.z.v.v.F.L.F.F.b.b.b.j.t.c.r.e.w.$.%.&.&.Y.(.(.T.L XX$X}.J L T.H A A K R R W R K q 6 D L }.*.K.K.H.kXlXP.H.S.B.a.a.a.a.a.f.",
">.,.,.,.x.v.M.F.F.V.b.V.b.c.c.x.w.e.+.$.] &.I.Y.I.H L A R.+X}.L J A & B J L E E E R H q q D {.XX*.K.H.H.kXlXlXH.S.S.B.a.S.a.a.f.",
":.,.,.,.w.J.M.F.F.F.c.c.c.c.x.r.e.+.+.*.] &.D 8 & B K ~.R.$XoX|.R.J }.XX.XR .XW R R S & 6 F |.(.*.K.H.H.lXlXlXZ.D.B.B.a.a.a.S.f.",
"O.O.X.X.,.v.v.M.b.b.v.j.x.l.r.e.+.[ $.[ %.&.Y.D T.W.R.~.R.$X@X|.|.L R |..X.X.X.XE R J & 6 H oX(.E.K.K.H.lXlXL.P.A.B.f.B.S.S.S.f.",
"O.2.X.X.$.z.v.v.v.w.l.l.z.l.e.e.$.] ] ] %.&.E.T.J L }.~.~.+X#XW #X&X@X@X@X&X@XW W R S & $ K oX~.D DXP.lXlXlXL.J.A.f.f.f.B.B.S.A.",
"O.;.X.$.$.l.x.v.v.x.z.l.z.r.r.+.o.] *.] ~ &.(.(.{.oXXXR.}.oX.X@X@X@X&XrXyXrX@XW E R S Z 7 T.+XK 7 VXHXP.lXlXL.L.K.f.d.C.S.S.S.f.",
">.,.@.o.l.V.V.Z.V.V.b.j.b.c.j.0.7.$.[ ] %.N XX(.XX|.|.{.R.}.|.|.|.@X&XyXyXrXrXW W E I S H ~.OXY.8 =XCXDXP.lXL.L.K.d.s.C.A.A.A.f.",
">.>.,.#.z.Z.N.B.N.G.G.F.C.V.V.t.w.w.*.] ] V W.(.oXoX#XR.~.XX|.R T R @X&XrXrXW @XE E U I I I F # E.W.=XHXLXcXP.P.K.A.f.f.d.f.d.s.",
"-.,.:.e.j.C.G.D.D.G.G.G.N.V.N.V.t.w.7.] *.$.W.{.#X#X|.R.XXtX|.R R R W &XrXrXW W E E L I I H # . U.{.=XSXPXPXcXP.K.A.f.f.f.f.d.s.",
">.,.:.,.v.Z.D.D.G.G.G.G.G.C.C.V.t.w.+.*.[ g.g.XXoX$XR.(.XX+XXX}.|.~.K U rXrXW W E R I I I G % 2 B {.=XZXGXPXPXvX*XK.K.K.K.K.A.A.",
":.,.X.,.l.Z.A.D.G.G.H.G.A.A.C.Z.t.w.7.*.w.9.g.(.oXoXF f (.R.L Z Z D G w Y W E E E R I I S S % 2 8 R.=XZXJXKXKXIXPXHXDX*XK.K.A.A.",
";.O.,.,.l.b.Z.C.A.D.Z.G.A.A.C.s.g.7.*.[ g.g.g.W.(.R.7 # @ r w 3 3 6 % 6 9 U E E E U I I I S % . > W.VXmXSXGXKXIXUXIXUXIXLXvXP.K.",
";.:.,.X.l.c.Z.Z.A.C.C.C.Z.C.P.s.9.g.[ *.g.xXVXE.E.H 3 < < # 6 $ # $ % 3 % Z E E Y U I S I S 9 2 8 J SXZXGXGXKXKXPXPXIXIXIXIXPXvX",
",.;.O.$.e.c.V.Z.A.C.C.C.C.A.s.s.g.*.xXHXHXGXnX`.T.G 3 < < $ 7 @ # 6 w 6 % 9 Y Y Y I I I S l G q &.J VXmXGXGXZXGXGXPXPXPXPXPXIXIX",
",.O.X.$.w.t.v.Z.C.C.C.C.C.f.s.*XAXHXFXFXFXnXbXj Q.G # 2 # & G 8 8 r D % & w Y E Y I I I H Z G 6 J [.wXVXGXZXmXSXGXPXPXPXPXKXPXPX",
":.;.$.X.#.t.t.Z.C.A.C.s.K.J.*XHXAXFXFXBXFXnXbXj h T.% % q D 6 3 @ @ @ @ S I Y Y Y I I I S Z G 6 V 7XwXSXZX0XmXSXGXGXGXGXJXKXPXKX",
"-.O.X.X.w.r.t.V.C.C.A.K.Z.vXFXBXBXBXBXBXBXBXk d f Q.Z 7 @ r @ * @ # 6 7 !.L  XU Y K I S l Z D w V 0X6XSXwX6XmXSXGXGXGXGXJXJXPXKX",
"-.O.X.X.e.z.t.Z.A.f.f.s.vXAXMXMXBXBXBXBXBXMXzXd f Y.T.r 6 $ $ @ $ I.G OX~.U  XU Y I S A 7 A A A T.4X7XmX0X5XmXZXAXAXAXFXFXJXFXJX",
" .o.o.X.+.r.t.c.C.C.d.xXMXnXnXBXBXBXBXNXMXnX:X0 h Q./.G U.D Y.!.F [.~. X}.Y E Y Y I S 9 A A A B 7X2X0XwX7X5XNXSXAXNXNXAXBXJXBXFX",
"} o.X.o.$.r.t.V.C.s.cXMXbXbXBXBXBXNXNXNXnXnX:X4 j h !.!.T.T.R.!.~.+X~.}. XY ^.Y I H A l F F F B 7X2X0XwX'.6XwXZXAXNXNXNXBXBXBXJX",
"} { ( ( @.e.x.Z.Z.*XMX9X1XnXBXBXMXnXqX9X<X9X1Xs g 4 U.!.Y.T.~.~.}.OX X XE  X X^.I S w Z J A F !.;X;XwX7X'.0XwXZXwXwXNXNXwXAXAXNX",
"( ( ( ~ o.+.r.v.J.xXbX].1XBXnX9X<XqX<X9X9X<X<X0 d 4 q !.T.K !.~.~. X X X X^.Y E S S 7 J J J A 7X;X;X4X4X;X8XZXwXwXwX0XwXwXwXNXNX",
"( ( ( ~ ( $.#.w.xX].].].9XnX1X,X<X9X<X9X9X<X<Xj s s # Y.!.!.!.!.^. XE eXE Y Y Y S Z l K J A I ;X-X3X3X-X8XwXNX8X8X5X0XwX8XwXwXwX",
"/ / ( ( X.$.$.*.zX`.].].9X].].5X<X:X<X<X<X<X<X`.e 0 3 r P ~.Y ^.^.eXeXeX XY I P S l S J J F 4X;X3X3X8X:X3XwXwXwX8X5X8X8X5X0X8XqX",
"~ ( ( 2.X.,.e.3.zX].].9X1X,X5X,X<X<X5X<X<X<X<X:XQ.0 e 6 H ~.Y ^.OXtXeX.XY I P P l Z J J J !.;X-X3X8X3X-X3XwXwX8X8X5X8X3X8X8XwX0X",
"X.X.X.X.#.r.e.xX].`.].'.'.'.1X5X<X<X5X5X<X<X<X<X:Xg t 3 w /.Y  XeXeXeX;XI I P G & A J L H uX;X4X8X3X-X3X8XwX8X8X0X3X3X8X8X<X0X<X",
"} X.;.X.#.z.J.zX`.'.'.:X'.'.9X,X<X>X<X<X<X<X:X:X,Xh t e q P Y ;XeXeX^.Y S I G 9 l J J J ^.4X4X4X8X4X-X3X8X8XwX8X8X3X3X5X5X3X3X<X",
"O.( 2.,.,.z._._.`.'.'.'.>X,X2X>X<X<X<X<X<X<X:X:X:X:Xg t q t Q.Y ;X^.Y S I P w 9 A J J S 4X4X4X4X4X-X-X3X8X8X8X8X3X5X3X3X5X<X3X>X",
";.X.X.X.#.g._.`.`.'.'.'.>X'.,X,X<X<X<X<X<X<X:X:X:X<XQ.t t q P P I P G S I Z w 7 A J S ;X4X4X3X4X3X-X-X3X8X8X3X>X3X3X8X3X3X3X<X<X",
"X.%.X.$.$.,._.`.`.Q.'.'.'.'.2X,X3X>X<X<X<X<X:X:X<X<X:Xh t 0 e 9 t Z G H Z l 7 l J J I 4X4X4X-X3X-X3X3X3X8X8X3X3X3X3X8X3X3X3X-X<X"
};
